<svg viewBox="0 0 19 30" fill="none" xmlns="http://www.w3.org/2000/svg">
<path d="M5.22883 4.49423C4.76664 3.92899 4.26095 3.38849 3.7551 2.84783C2.99171 2.03189 2.22795 1.21557 1.61278 0.313236C1.24231 -0.236031 0.412796 -0.0228825 0.316153 0.641157C-0.086526 3.47767 -0.247598 6.36338 0.718832 9.01953C1.78418 11.9569 4.48742 15.3221 7.27456 17.1474C6.96195 21.4976 7.88957 25.822 10.7373 29.6703C11.3735 30.5311 13.9265 29.5474 13.1856 28.539L13.1775 28.5472C11.9111 26.8339 11.0509 25.0215 10.5279 23.1543C11.9231 22.7137 13.167 21.797 14.1682 20.6935C15.328 19.4064 16.1897 17.8734 16.987 16.324C17.8165 14.7008 18.5977 13.0202 18.9843 11.2412C19.089 10.7493 18.6541 10.3066 18.1709 10.4296C17.5344 10.591 16.8825 10.7072 16.232 10.8232C14.7342 11.0903 13.2442 11.3559 11.9696 12.1676H11.9535C11.3367 12.56 10.8175 13.0614 10.3851 13.6376C11.2925 9.28877 13.3312 5.03134 15.7063 1.37077C16.0688 0.813308 15.3923 0.436199 14.9413 0.387011C14.305 0.321426 13.556 0.624753 13.2017 1.17402C11.2272 4.21855 9.50382 7.6448 8.41987 11.1954C7.89294 8.75015 6.80967 6.42881 5.23689 4.50242L5.22883 4.49423Z" fill="#FFFAEA"/>
</svg>
