<svg width="45" height="21" viewBox="0 0 45 21" fill="none" xmlns="http://www.w3.org/2000/svg">
<path d="M36.09 0C33.62 0 31.39 1.25 29.82 3.25C28.9 4.42 27.45 5.04 25.97 5.04H18.71C17.23 5.04 15.78 4.42 14.86 3.25C13.29 1.25 11.07 0 8.59 0C3.84 0 0 4.59 0 10.24C0 15.89 3.85 20.48 8.59 20.48C11.06 20.48 13.29 19.23 14.86 17.23C15.78 16.06 17.23 15.44 18.71 15.44H25.97C27.45 15.44 28.9 16.06 29.82 17.23C31.39 19.23 33.61 20.48 36.09 20.48C40.84 20.48 44.68 15.89 44.68 10.24C44.68 4.59 40.83 0 36.09 0Z" fill="#FFFAEA"/>
</svg>
