<svg width="31" height="28" viewBox="0 0 31 28" fill="none" xmlns="http://www.w3.org/2000/svg">
<path d="M30.6577 5.14879C30.1373 3.52275 27.7718 0.684391 25.9079 0.203313C23.9398 -0.30663 21.8772 0.18407 20.1173 1.21358C19.4739 1.58882 18.8116 1.88709 18.1871 2.12762C16.4556 2.79151 14.5538 2.79151 12.8318 2.12762C12.2168 1.88709 11.545 1.58882 10.9016 1.21358C9.14173 0.193691 7.07908 -0.30663 5.11105 0.203313C3.24709 0.684391 0.824889 3.12827 0.361265 5.14879C0.361265 5.14879 -1.81493 10.2386 4.51495 18.5035C4.51495 18.5035 7.55217 22.8621 10.7124 26.0083C13.3806 28.6639 17.6194 28.6639 20.2876 26.0083C23.4478 22.8621 26.485 18.5035 26.485 18.5035C32.8149 10.2386 30.6387 5.14879 30.6387 5.14879H30.6577Z" fill="#FFFAEA"/>
</svg>
