<svg width="41" height="27" viewBox="0 0 41 27" fill="none" xmlns="http://www.w3.org/2000/svg">
<path d="M13.2313 21.2125C12.6513 24.3825 9.82129 26.7625 6.46129 26.6625C2.93129 26.5525 0.0312954 23.5825 0.00129536 20.0525C-0.0187046 17.4725 1.4213 15.2325 3.5413 14.1025C4.1513 13.7825 4.1513 12.8725 3.5413 12.5525C1.1313 11.2725 -0.398708 8.56251 0.0912917 5.55251C0.531292 2.83251 2.68128 0.622514 5.39128 0.122515C9.20128 -0.587485 12.5813 1.95251 13.2313 5.45251C13.2513 5.57251 13.4313 5.57251 13.4513 5.45251C14.0213 2.35251 16.7413 0.00251463 20.0113 0.00251463C23.2813 0.00251463 26.0013 2.35251 26.5713 5.45251C26.5913 5.57251 26.7713 5.58251 26.7913 5.45251C27.4113 2.11251 30.5113 -0.357485 34.1113 0.0425146C37.2213 0.382515 39.7213 2.95251 39.9913 6.07251C40.2313 8.87251 38.7413 11.3525 36.4713 12.5625C35.8613 12.8825 35.8613 13.7925 36.4713 14.1125C38.7413 15.3225 40.2313 17.8025 39.9913 20.6125C39.7113 23.7325 37.2113 26.2925 34.0913 26.6325C30.4913 27.0225 27.4013 24.5525 26.7813 21.2225C26.7613 21.1025 26.5813 21.1025 26.5613 21.2225C25.9913 24.3225 23.2713 26.6725 20.0013 26.6725C16.7313 26.6725 14.0113 24.3225 13.4413 21.2225C13.4213 21.1025 13.2413 21.0925 13.2213 21.2225L13.2313 21.2125Z" fill="#FFFAEA"/>
</svg>
