<svg width="214" height="67" viewBox="0 0 214 67" fill="none" xmlns="http://www.w3.org/2000/svg">
<path d="M188.382 28.7699C188.632 26.6055 188.158 24.4137 187.027 22.5511C183.732 17.1402 176.516 8.1163 175.707 3.69286C175.501 2.66304 176.276 1.68809 177.365 1.68809C179.849 1.63573 183.833 1.63573 187.143 1.63573C188.798 1.63573 190.248 1.63573 191.23 1.58586C191.955 1.58586 192.523 2.25411 192.369 2.97473C192.111 4.31124 191.54 4.31124 191.54 6.21128C191.746 13.9735 192.781 15.8087 194.074 15.8087C195.366 15.8087 196.404 13.9735 196.662 6.21128C196.662 4.31124 196.041 4.31124 195.783 2.97473C195.627 2.25411 196.198 1.58586 196.922 1.58586C197.957 1.63573 199.406 1.63573 201.011 1.63573C204.324 1.63573 208.358 1.63573 210.79 1.68809C211.877 1.68809 212.703 2.66304 212.497 3.69286C211.646 8.12129 204.413 17.0579 201.12 22.5012C199.986 24.3738 199.522 26.5781 199.783 28.7524C200.577 35.3402 201.803 37.2427 200.699 37.2427C199.51 37.2427 197.076 36.8313 195.059 36.8313H193.146C191.076 36.8313 188.697 37.2427 187.506 37.2427C186.404 37.2427 187.625 35.3452 188.384 28.7724L188.382 28.7699Z" fill="#442013"/>
<path d="M63.9989 25.2889C63.994 25.2266 63.994 25.1742 63.994 25.1119L64.1453 6.72992C64.1453 5.79237 64.0188 5.21139 63.8451 4.77004C63.2918 3.34626 64.2892 1.80528 65.8102 1.8003L74.9537 1.76788C76.4474 1.7629 77.4821 3.25649 76.961 4.66282C76.822 5.03934 76.6434 5.5131 76.7153 6.32348C77.6334 16.472 77.4697 22.1821 79.8963 21.9377H80.0973C83.0748 21.9377 82.3751 16.3423 83.3279 6.32348C83.4023 5.54053 83.2237 5.07175 83.0847 4.70022C82.5488 3.28143 83.5686 1.7604 85.0797 1.76788L94.1858 1.8003C95.7068 1.80528 96.7043 3.34626 96.151 4.77004C95.9798 5.21388 95.8508 5.79237 95.8508 6.72992C95.8508 8.29334 96.0393 23.9873 96.0517 25.1319C96.0517 25.1867 96.0517 25.2241 96.0468 25.2765C95.9649 26.3412 94.7565 37.7788 80.6035 37.7788H79.3901C65.3413 37.7788 64.0883 26.431 63.9989 25.2889Z" fill="#442013"/>
<path d="M144.707 34.5173C143.952 31.1038 141.836 20.5463 141.742 9.32066C141.717 6.27611 141.88 4.46833 141.724 3.4086C141.61 2.63312 140.945 2.06211 140.163 2.06211H138.732C138.685 2.05713 138.637 2.04965 138.588 2.04965H125.742C125.015 2.04965 124.38 2.54086 124.194 3.24652L122.085 11.2057C121.648 12.8514 119.326 12.8514 118.892 11.2057L116.783 3.24652C116.597 2.54086 115.961 2.04965 115.234 2.04965H102.364C102.314 2.04965 102.27 2.05962 102.22 2.06211H100.997C100.215 2.06211 99.5503 2.63312 99.4362 3.4086C99.2799 4.46833 99.4436 6.2786 99.4188 9.32066C99.3245 20.5463 97.208 31.1038 96.4537 34.5173C96.4537 34.5173 96.3346 36.0409 98.0492 36.5346C98.2402 36.6169 98.4486 36.6667 98.672 36.6667H98.7762C99.059 36.6917 99.3816 36.6917 99.7364 36.6667H107.984C108.828 36.6667 109.527 36.0084 109.582 35.1632L110.041 28.1864C110.155 26.4459 112.56 26.1043 113.148 27.7475L115.964 35.6045C116.192 36.2428 116.795 36.6692 117.472 36.6692H123.479C124.154 36.6692 124.757 36.2428 124.988 35.6045L127.814 27.7226C128.402 26.0819 130.804 26.421 130.921 28.159L131.392 35.1681C131.449 36.0134 132.149 36.6692 132.99 36.6692H141.424C144.895 36.9111 144.707 34.5198 144.707 34.5198V34.5173Z" fill="#442013"/>
<path d="M172.392 19.3918C171.646 19.2921 171.695 19.0926 171.946 18.8932C172.095 18.7934 172.244 18.7435 172.392 18.6438C174.234 17.4444 175.876 15.2951 175.876 11.298C175.876 3.55073 168.016 2.10201 167.021 2.10201C162.671 1.82523 158.703 1.75542 155.56 1.84518C155.545 1.84518 155.535 1.84269 155.52 1.84019C154.522 1.81277 153.16 1.85017 151.793 1.91001C150.803 1.92497 149.597 1.96985 148.587 2.08954C147.295 2.17432 146.379 2.24663 146.379 2.24663L146.384 2.27157C145.171 2.42118 144.292 3.56319 144.513 4.81991C145.203 8.73469 146.828 13.774 147.252 18.6812C147.617 22.9176 145.143 35.3277 147.726 36.8388C147.781 36.9485 147.902 36.9884 148.118 36.9884C148.138 36.9884 148.161 36.9884 148.18 36.9884C148.275 36.9984 148.376 36.9909 148.481 36.9784C149.701 36.9236 151.738 36.6393 153.542 36.6393H155.086C156.279 36.6917 157.671 37.4023 159.063 37.502C159.76 37.5519 160.358 37.6018 160.805 37.6018H160.855C163.542 37.8013 166.231 37.3898 168.12 37.3898C173.345 37.3898 179.613 34.3902 179.613 26.1442C179.613 20.4466 175.137 19.4467 172.4 19.3968L172.392 19.3918ZM165.338 28.0168C164.227 28.5978 163.048 28.8871 161.802 28.8871C160.244 28.8871 159.468 27.6603 159.468 25.2017C159.468 24.2866 159.626 23.6582 159.825 23.2667C159.927 23.0673 160.341 22.2594 161.537 22.187C162.728 22.0848 164.016 22.3766 165.105 22.7556C166.594 23.3166 167.338 24.132 167.338 25.2017C167.338 26.3636 166.673 27.3037 165.338 28.0168ZM164.175 13.6394C163.256 14.1181 162.284 14.3575 161.259 14.3575C159.974 14.3575 159.334 13.3451 159.334 11.3154C159.334 10.5599 159.463 10.0438 159.629 9.71961C159.713 9.55504 160.053 8.88928 161.041 8.82944C162.023 8.74466 163.085 8.98653 163.983 9.29821C165.212 9.75951 165.827 10.4328 165.827 11.3154C165.827 12.2754 165.279 13.0484 164.177 13.6369L164.175 13.6394Z" fill="#442013"/>
<path d="M19.3414 13.9087C23.1848 14.6243 27.4129 16.3448 28.4972 13.4374C28.8545 12.4799 30.2564 6.94436 31.0132 4.57555C31.1571 4.12922 30.9933 3.6355 30.6013 3.37618C27.4178 1.26669 23.619 0 19.5076 0C8.74393 0 0 8.42799 0 18.8183C0 22.1147 0.875882 25.2166 2.41178 27.9171C3.02217 27.7924 5.87809 27.2837 8.06655 28.1689C10.5304 29.1663 9.03672 32.7096 10.9622 33.3529C11.6495 33.5823 12.3145 33.5898 12.8827 33.5025C15.2026 33.1509 17.6268 34.1707 18.9195 36.1381C18.9195 36.1381 19.2471 36.6268 19.5944 37.4896C19.5944 37.4946 19.5969 37.4996 19.5994 37.502C19.6217 37.5569 19.6441 37.6242 19.6664 37.6816C22.5571 37.6566 25.2964 36.9934 27.7851 35.8763C28.0803 35.7292 28.3855 35.5821 28.6882 35.425C29.4773 35.021 29.8768 34.1209 29.6832 33.2531C29.0629 30.4879 27.7106 25.9472 27.1499 23.2019C27.0456 22.4788 26.2864 21.828 25.5619 21.9826C23.8349 22.3815 21.0063 23.2617 19.4381 23.3041C11.6296 23.5061 13.4682 12.8165 19.3389 13.9087H19.3414Z" fill="#442013"/>
<path d="M60.8155 21.0425C58.1804 19.8332 57.7635 23.3291 54.399 23.3291C51.0344 23.3291 50.5183 19.1624 53.1062 19.1624C55.2277 19.1624 61.6442 18.2972 61.6442 10.3679C61.6442 2.43863 53.466 1.01485 52.4338 1.01485C43.4839 0.456308 35.2412 1.46368 34.0502 1.46368C32.497 1.46368 34.2189 3.35374 34.2189 18.8533V19.16C34.2189 34.6121 31.2166 36.4922 32.7699 36.4922C33.9584 36.4922 36.3404 36.1381 38.4098 36.1381H40.2732C42.3426 36.1381 44.7221 36.4922 45.9131 36.4922C47.2604 36.4922 45.2928 35.1731 44.6725 25.1568C44.6725 22.768 46.0694 22.8179 46.0694 24.4461C46.0694 26.0744 45.861 37.2028 53.7787 37.2028C55.4858 37.2028 59.2622 37.4073 60.6095 34.7642C63.0933 29.9867 62.1752 21.6634 60.8155 21.04V21.0425ZM49.6523 13.7316C48.6325 14.2652 47.5532 14.5296 46.4118 14.5296C44.9826 14.5296 44.2705 13.405 44.2705 11.1484C44.2705 10.3081 44.4144 9.73457 44.598 9.37302C44.6898 9.19099 45.0695 8.45043 46.1662 8.3831C47.2579 8.28835 48.439 8.55765 49.4389 8.90424C50.8036 9.4179 51.486 10.1659 51.486 11.1484C51.486 12.2156 50.8756 13.0758 49.6523 13.7291V13.7316Z" fill="#442013"/>
<path d="M144.602 61.285C144.699 61.3348 144.798 61.3897 144.892 61.447C149.215 64.0178 152.505 66.3941 157.696 65.7309C159.822 65.4591 161.924 64.7958 163.785 63.7186C164.082 63.5466 166.397 61.7138 167.507 60.517C167.946 60.0407 168.65 59.9385 169.196 60.2876C171.893 62.0056 178.829 65.9802 184.558 65.5339C191.51 64.9928 194.143 63.0728 197.287 57.0236C197.557 56.5025 198.14 56.2282 198.716 56.3379C202.209 56.9962 213.871 58.203 212.772 44.6335C211.626 30.4854 194.612 35.2081 190.803 36.4473C190.346 36.597 189.853 36.4847 189.503 36.1556C187.736 34.4875 181.799 29.685 173.246 31.0589C170.263 31.5377 167.916 32.4677 165.837 34.7667C165.033 35.6569 164.271 36.7865 163.765 37.8437C163.527 38.3424 163.472 39.1179 162.889 39.0356C162.355 38.9608 161.073 38.0307 160.621 37.6916C158.157 35.8464 155.415 34.1633 152.301 33.7993C151.163 33.6671 150.009 33.7145 148.87 33.8367C145.461 34.2032 144.463 34.6047 141.607 36.5371C140.421 37.3375 139.573 38.7887 138.719 40.0479C138.419 40.4918 137.888 40.7062 137.364 40.6065C134.685 40.0953 126.169 39.0106 121.318 44.616C115.509 51.3285 118.653 71.1093 143.051 61.3174L143.332 61.2102C143.749 61.0531 144.21 61.0805 144.607 61.285H144.602Z" fill="#FFF4DC"/>
<path d="M176.263 30.812C183.186 30.812 187.947 34.6893 189.498 36.153C189.746 36.3874 190.064 36.5121 190.391 36.5121C190.528 36.5121 190.664 36.4896 190.798 36.4472C192.468 35.9037 196.671 34.6918 200.966 34.6918C206.472 34.6918 212.125 36.6841 212.77 44.6334C213.599 54.8641 207.175 56.6943 202.465 56.6943C200.927 56.6943 199.572 56.4999 198.714 56.3378C198.629 56.3228 198.545 56.3153 198.463 56.3153C197.977 56.3153 197.518 56.5796 197.284 57.026C194.141 63.0727 191.508 64.9927 184.555 65.5363C184.255 65.5587 183.95 65.5712 183.642 65.5712C178.107 65.5712 171.75 61.9182 169.194 60.29C168.976 60.1503 168.733 60.083 168.492 60.083C168.13 60.083 167.77 60.2326 167.507 60.5194C166.398 61.7187 164.08 63.5489 163.785 63.721C161.924 64.7982 159.822 65.459 157.696 65.7332C157.095 65.8105 156.522 65.8454 155.966 65.8454C151.731 65.8454 148.716 63.7235 144.893 61.4494C144.798 61.3921 144.699 61.3397 144.602 61.2874C144.377 61.1702 144.131 61.1103 143.883 61.1103C143.694 61.1103 143.508 61.1452 143.329 61.2125L143.049 61.3198C138.36 63.2024 134.457 63.9903 131.251 63.9903C117.775 63.9903 116.624 50.0392 121.316 44.6159C124.442 41.0053 129.087 40.17 132.715 40.17C134.717 40.17 136.409 40.4243 137.362 40.6064C137.446 40.6213 137.531 40.6313 137.615 40.6313C138.052 40.6313 138.466 40.4194 138.717 40.0478C139.568 38.7911 140.419 37.3399 141.605 36.537C144.461 34.6045 145.458 34.2031 148.868 33.8366C149.533 33.7642 150.2 33.7194 150.868 33.7194C151.346 33.7194 151.823 33.7443 152.299 33.7992C155.411 34.1632 158.155 35.8463 160.619 37.6915C161.068 38.0281 162.353 38.9582 162.887 39.0355C162.916 39.0405 162.944 39.0405 162.971 39.0405C163.477 39.0405 163.537 38.3149 163.765 37.8411C164.271 36.7839 165.033 35.6543 165.837 34.7641C167.914 32.4651 170.263 31.5351 173.246 31.0563C174.293 30.8893 175.3 30.812 176.268 30.812M176.268 29.6575C175.211 29.6575 174.132 29.7447 173.065 29.9143C169.462 30.4928 167.045 31.7096 164.988 33.9862C164.107 34.9611 163.284 36.1829 162.73 37.3399C162.683 37.4371 162.641 37.5419 162.601 37.6516C162.299 37.4671 161.857 37.1778 161.306 36.7639C159.038 35.0658 155.981 33.0661 152.433 32.6497C151.939 32.5923 151.413 32.5624 150.87 32.5624C150.22 32.5624 149.528 32.6023 148.749 32.6871C145.203 33.0661 144.039 33.4999 140.967 35.577C139.764 36.3899 138.898 37.6965 138.136 38.851C138.015 39.0355 137.893 39.2175 137.771 39.397C137.724 39.4693 137.647 39.4768 137.618 39.4768C136.486 39.2649 134.757 39.018 132.717 39.018C129.032 39.018 123.916 39.8583 120.452 43.8604C117.47 47.3064 116.795 53.3705 118.879 57.9685C120.095 60.649 123.318 65.1448 131.253 65.1448C134.811 65.1448 138.925 64.2172 143.478 62.392L143.739 62.2947C143.786 62.2773 143.838 62.2673 143.888 62.2673C143.955 62.2673 144.022 62.2847 144.081 62.3147C144.158 62.3546 144.238 62.3994 144.315 62.4443C144.714 62.6812 145.106 62.9181 145.491 63.15C148.912 65.2146 151.865 66.9999 155.974 66.9999C156.584 66.9999 157.215 66.9575 157.847 66.8777C160.192 66.576 162.448 65.8305 164.363 64.7209C164.775 64.484 167.189 62.564 168.353 61.3048C168.407 61.245 168.467 61.2375 168.499 61.2375C168.532 61.2375 168.561 61.2475 168.589 61.2649C171.169 62.9056 177.799 66.7257 183.652 66.7257C183.99 66.7257 184.322 66.7132 184.655 66.6882C191.86 66.1272 194.925 64.0801 198.312 57.5621C198.346 57.4948 198.418 57.4723 198.473 57.4723C199.423 57.6494 200.852 57.8538 202.475 57.8538C206.279 57.8538 209.331 56.7193 211.301 54.5724C213.395 52.2884 214.278 48.9147 213.924 44.5461C213.34 37.3499 208.864 33.5448 200.976 33.5448C196.503 33.5448 192.128 34.8115 190.456 35.3576C190.439 35.3576 190.421 35.3601 190.409 35.3601C190.349 35.3601 190.319 35.3451 190.295 35.3202C188.493 33.6196 183.523 29.6674 176.273 29.6674L176.268 29.6575Z" fill="#633527"/>
<path d="M145.193 53.7023C145.297 53.8295 145.362 54.014 145.384 54.2534C145.429 54.6972 145.347 55.0638 145.143 55.348C144.627 56.0662 144.086 56.6372 143.528 57.0561C142.97 57.475 142.282 57.7243 141.469 57.8041C140.68 57.8814 139.99 57.7493 139.399 57.4052C138.806 57.0611 138.216 56.4302 137.623 55.5076C137.146 54.772 136.774 54.231 136.506 53.8844C136.238 53.5378 135.985 53.2934 135.744 53.1563C135.504 53.0191 135.218 52.9493 134.888 52.9468C134.864 53.1912 134.799 53.9567 134.692 55.2458C134.653 55.8243 134.625 56.1784 134.613 56.308C134.561 57.0162 134.37 57.5747 134.042 57.9812C133.715 58.3901 133.181 58.6295 132.442 58.7018C131.628 58.7841 130.886 58.6295 130.219 58.2405C129.549 57.8515 129.003 57.273 128.586 56.5025C128.167 55.732 127.906 54.8344 127.804 53.8071C127.616 51.8921 127.807 50.204 128.38 48.7403C128.953 47.2791 129.844 46.1172 131.052 45.2544C132.261 44.3892 133.702 43.8755 135.377 43.7084C136.543 43.5912 137.536 43.6611 138.357 43.9129C139.178 44.1647 139.809 44.5612 140.248 45.1048C140.687 45.6484 140.943 46.2842 141.015 47.0148C141.077 47.6531 140.977 48.2915 140.717 48.9348C140.456 49.5781 140.027 50.1641 139.429 50.6952C138.831 51.2263 138.082 51.6527 137.183 51.9719C137.781 52.0616 138.253 52.2561 138.603 52.5553C138.95 52.8546 139.315 53.3084 139.692 53.9118C140.099 54.5626 140.486 55.0314 140.851 55.3181C141.218 55.6024 141.617 55.7246 142.054 55.6822C142.444 55.6423 142.801 55.4827 143.129 55.2034C143.456 54.9241 143.858 54.4604 144.332 53.8145C144.461 53.64 144.617 53.5452 144.801 53.5253C144.957 53.5103 145.089 53.5652 145.193 53.6924V53.7023ZM132.372 53.1837C131.958 53.2261 131.668 53.1612 131.499 52.9942C131.33 52.8271 131.233 52.6301 131.211 52.4007C131.184 52.1289 131.258 51.902 131.429 51.7225C131.601 51.5455 131.809 51.4432 132.052 51.4183L132.509 51.3734C132.591 50.2364 132.68 49.254 132.769 48.4286C132.854 47.6706 133.328 47.2492 134.189 47.1644C134.881 47.0971 135.256 47.3514 135.313 47.9349C135.325 48.0596 135.328 48.1568 135.323 48.2266L135.057 51.1216C135.71 51.0218 136.293 50.8149 136.806 50.4982C137.32 50.1815 137.717 49.7751 137.99 49.2739C138.265 48.7752 138.374 48.2291 138.315 47.6357C138.245 46.9176 137.928 46.379 137.365 46.0174C136.801 45.6608 136.017 45.5312 135.01 45.6309C133.821 45.7481 132.807 46.1296 131.968 46.7729C131.129 47.4138 130.516 48.3039 130.127 49.4435C129.737 50.583 129.618 51.932 129.772 53.4954C129.844 54.226 129.985 54.8444 130.194 55.353C130.405 55.8617 130.638 56.2357 130.894 56.4751C131.149 56.7145 131.382 56.8242 131.588 56.8042C131.747 56.7893 131.869 56.702 131.958 56.5424C132.047 56.3853 132.104 56.1385 132.132 55.7994L132.37 53.1862L132.372 53.1837Z" fill="#633527"/>
<path d="M144.659 56.692C144.25 56.2033 144.002 55.5251 143.918 54.6573C143.865 54.1437 143.873 53.4804 143.932 52.6601C143.992 51.8422 144.096 51.0767 144.248 50.3561C144.322 49.9796 144.441 49.7152 144.61 49.5607C144.779 49.4061 145.064 49.3088 145.463 49.2689C146.084 49.2066 146.411 49.3711 146.448 49.7576C146.476 50.0419 146.426 50.7151 146.3 51.7749C146.131 53.059 146.069 53.9218 146.113 54.3681C146.148 54.7097 146.223 54.969 146.337 55.1411C146.451 55.3156 146.625 55.3879 146.855 55.3655C147.074 55.343 147.332 55.176 147.632 54.8568C147.932 54.5377 148.324 54.0439 148.811 53.3757C148.94 53.2011 149.096 53.1064 149.277 53.0889C149.436 53.074 149.565 53.1288 149.672 53.256C149.776 53.3832 149.84 53.5677 149.863 53.8071C149.907 54.2634 149.828 54.6274 149.622 54.9017C148.555 56.4028 147.501 57.2032 146.458 57.3079C145.669 57.3877 145.069 57.1807 144.659 56.692ZM144.518 47.89C144.24 47.693 144.084 47.3963 144.044 46.9949C144.004 46.5959 144.138 46.2468 144.446 45.9451C144.754 45.6459 145.156 45.4688 145.654 45.419C146.104 45.3741 146.478 45.4389 146.778 45.616C147.076 45.7955 147.245 46.0698 147.282 46.4463C147.327 46.9026 147.205 47.2791 146.917 47.5808C146.627 47.88 146.223 48.0546 145.702 48.1069C145.193 48.1593 144.798 48.0845 144.521 47.89H144.518Z" fill="#633527"/>
<path d="M149.304 56.0662C148.58 55.4976 148.168 54.6947 148.066 53.6575C147.974 52.7349 148.089 51.907 148.409 51.1714C148.729 50.4359 149.18 49.8499 149.761 49.4135C150.342 48.9747 150.974 48.7228 151.654 48.653C152.322 48.5857 152.858 48.7203 153.264 49.0545C153.671 49.3886 153.905 49.8474 153.962 50.4259C154.009 50.9046 153.937 51.3211 153.746 51.6751C153.555 52.0267 153.277 52.2212 152.912 52.2586C152.681 52.281 152.49 52.2486 152.341 52.1589C152.193 52.0716 152.108 51.9369 152.091 51.7524C152.083 51.6726 152.086 51.5804 152.101 51.4757C152.116 51.3709 152.126 51.2936 152.133 51.2463C152.175 51.0717 152.193 50.9071 152.178 50.76C152.163 50.6129 152.111 50.5007 152.024 50.4284C151.937 50.3561 151.82 50.3286 151.676 50.3436C151.396 50.371 151.148 50.5132 150.927 50.7725C150.709 51.0293 150.545 51.3659 150.438 51.7799C150.332 52.1938 150.302 52.6401 150.349 53.1164C150.48 54.4404 151.158 55.0413 152.384 54.9192C152.882 54.8693 153.403 54.6573 153.949 54.2883C154.495 53.9168 155.016 53.3906 155.512 52.7074C155.642 52.5329 155.798 52.4381 155.981 52.4182C156.14 52.4032 156.269 52.4581 156.376 52.5853C156.48 52.7124 156.545 52.8969 156.567 53.1363C156.609 53.5677 156.53 53.9342 156.326 54.231C155.82 54.9491 155.187 55.5276 154.428 55.9664C153.669 56.4053 152.917 56.6596 152.178 56.7344C150.989 56.8516 150.031 56.6272 149.307 56.0637L149.304 56.0662Z" fill="#633527"/>
<path d="M161.974 52.5479C162.078 52.6775 162.142 52.8595 162.167 53.0989C162.207 53.5103 162.137 53.8744 161.961 54.1911C161.671 54.7147 161.262 55.1411 160.736 55.4702C160.209 55.7994 159.564 55.9988 158.8 56.0761C157.634 56.1933 156.699 55.9564 155.991 55.363C155.282 54.772 154.875 53.9168 154.763 52.7997C154.686 52.0142 154.79 51.2637 155.076 50.5481C155.361 49.8349 155.795 49.249 156.381 48.7877C156.966 48.3239 157.654 48.0546 158.443 47.9773C159.148 47.9075 159.731 48.0471 160.195 48.3987C160.659 48.7478 160.924 49.2614 160.989 49.9347C161.068 50.7226 160.832 51.4283 160.289 52.0516C159.743 52.675 158.765 53.2236 157.354 53.6998C157.696 54.196 158.215 54.408 158.904 54.3407C159.403 54.2908 159.8 54.1412 160.103 53.8918C160.403 53.645 160.74 53.241 161.115 52.6875C161.244 52.5005 161.4 52.3982 161.582 52.3808C161.738 52.3658 161.869 52.4207 161.976 52.5479H161.974ZM157.234 50.5331C156.974 51.0543 156.877 51.6627 156.947 52.3583V52.3933C157.651 52.1614 158.19 51.8671 158.572 51.5081C158.954 51.1465 159.123 50.755 159.081 50.3336C159.061 50.1167 158.979 49.9496 158.837 49.83C158.696 49.7128 158.517 49.6654 158.299 49.6853C157.85 49.7302 157.495 50.012 157.232 50.5331H157.234Z" fill="#633527"/>
<path d="M168.313 54.1711C167.589 53.6026 167.177 52.8022 167.073 51.7624C166.981 50.8398 167.095 50.012 167.415 49.2764C167.735 48.5408 168.187 47.9548 168.767 47.5185C169.348 47.0796 169.981 46.8278 170.661 46.758C171.328 46.6906 171.864 46.8253 172.271 47.1594C172.678 47.4936 172.911 47.9524 172.968 48.5308C173.015 49.0096 172.943 49.426 172.75 49.7801C172.559 50.1317 172.281 50.3262 171.916 50.3636C171.685 50.386 171.494 50.3536 171.345 50.2638C171.196 50.1765 171.112 50.0394 171.095 49.8574C171.087 49.7776 171.09 49.6853 171.105 49.5806C171.12 49.4759 171.129 49.4011 171.137 49.3537C171.182 49.1767 171.196 49.0146 171.182 48.8675C171.167 48.7203 171.115 48.6081 171.03 48.5358C170.943 48.4635 170.827 48.4361 170.68 48.4511C170.4 48.4785 170.152 48.6206 169.931 48.8799C169.713 49.1368 169.549 49.4734 169.442 49.8873C169.336 50.3012 169.306 50.7476 169.353 51.2238C169.484 52.5478 170.162 53.1488 171.388 53.0266C171.886 52.9767 172.407 52.7673 172.953 52.3957C173.499 52.0242 174.02 51.4981 174.516 50.8149C174.645 50.6403 174.802 50.5456 174.985 50.5256C175.144 50.5107 175.273 50.5655 175.377 50.6927C175.482 50.8199 175.546 51.0044 175.568 51.2438C175.611 51.6751 175.531 52.0417 175.328 52.3384C174.822 53.0565 174.189 53.635 173.43 54.0739C172.67 54.5127 171.919 54.7671 171.179 54.8419C169.991 54.9591 169.033 54.7346 168.308 54.1686L168.313 54.1711Z" fill="#633527"/>
<path d="M174.583 53.7273C174.085 53.2585 173.794 52.6102 173.712 51.7774C173.623 50.8623 173.76 49.9771 174.129 49.1168C174.499 48.2566 175.03 47.5409 175.73 46.9699C176.427 46.3989 177.196 46.0723 178.032 45.99C178.3 45.9626 178.484 45.995 178.583 46.0822C178.682 46.1695 178.777 46.3366 178.861 46.5809C179.112 46.5086 179.377 46.4588 179.655 46.4313C180.251 46.3715 180.566 46.541 180.605 46.94C180.63 47.1794 180.595 47.7579 180.501 48.678C180.352 50.017 180.303 50.942 180.352 51.4557C180.37 51.6278 180.429 51.7574 180.528 51.8522C180.63 51.9444 180.754 51.9843 180.898 51.9694C181.129 51.9469 181.394 51.7799 181.695 51.4682C181.995 51.1565 182.392 50.6578 182.891 49.9746C183.02 49.8 183.176 49.7053 183.36 49.6878C183.518 49.6729 183.647 49.7277 183.754 49.8549C183.858 49.9821 183.923 50.1666 183.945 50.4059C183.99 50.8623 183.91 51.2263 183.704 51.5006C183.265 52.1314 182.784 52.675 182.265 53.1288C181.747 53.5827 181.226 53.837 180.705 53.8893C180.305 53.9292 179.923 53.837 179.566 53.6151C179.206 53.3907 178.921 53.0665 178.707 52.6376C178.169 53.6575 177.422 54.216 176.462 54.3107C175.71 54.3856 175.085 54.1911 174.583 53.7198V53.7273ZM177.668 52.0043C177.881 51.6851 178.017 51.2737 178.079 50.7725L178.444 47.5584C177.936 47.6207 177.481 47.8476 177.084 48.2366C176.687 48.6281 176.39 49.1218 176.191 49.7177C175.993 50.3112 175.926 50.9296 175.988 51.5679C176.023 51.9195 176.124 52.1763 176.293 52.3309C176.462 52.488 176.68 52.5503 176.948 52.5254C177.214 52.498 177.454 52.3259 177.668 52.0043Z" fill="#633527"/>
<path d="M193.314 48.9074C193.419 49.0345 193.483 49.219 193.505 49.4584C193.55 49.9147 193.471 50.2788 193.262 50.5531C192.778 51.2363 192.275 51.7923 191.754 52.2237C191.233 52.6551 190.59 52.9094 189.826 52.9842C188.89 53.0765 188.114 52.9019 187.496 52.4581C186.876 52.0118 186.523 51.3734 186.441 50.5406C186.397 50.0968 186.61 49.7527 187.077 49.5108C187.59 49.2415 187.95 48.9722 188.156 48.7054C188.362 48.4386 188.449 48.1269 188.414 47.7728C188.394 47.5684 188.334 47.4187 188.233 47.324C188.134 47.2317 188.014 47.1918 187.88 47.2043C187.553 47.2367 187.213 47.496 186.863 47.9773C186.513 48.461 186.201 49.0719 185.93 49.8075C185.66 50.5431 185.464 51.2886 185.342 52.0492C185.26 52.5977 185.144 52.9742 184.985 53.1812C184.826 53.3857 184.561 53.5078 184.183 53.5452C183.806 53.5826 183.518 53.4829 183.317 53.246C183.116 53.0067 182.96 52.6227 182.846 52.0915C182.732 51.5629 182.625 50.7775 182.523 49.7402C182.35 47.9848 182.36 46.1346 182.556 44.1922C182.749 42.2522 183.156 40.5941 183.776 39.2276C184.394 37.8587 185.225 37.1231 186.27 37.0184C186.828 36.9636 187.302 37.1431 187.692 37.5595C188.081 37.9759 188.312 38.5419 188.384 39.2626C188.498 40.4145 188.258 41.6438 187.665 42.9529C187.072 44.262 186.047 45.8229 184.595 47.6382C184.618 48.2341 184.66 48.8475 184.722 49.4734C185.163 47.9923 185.729 46.8901 186.419 46.1695C187.109 45.4514 187.781 45.0574 188.436 44.9926C189.044 44.9327 189.55 45.0774 189.96 45.4289C190.369 45.778 190.6 46.2418 190.657 46.8103C190.719 47.4387 190.605 48.0321 190.317 48.5882C190.029 49.1467 189.493 49.6729 188.707 50.1641C188.786 50.4658 188.96 50.7002 189.225 50.8623C189.493 51.0268 189.803 51.0892 190.153 51.0543C190.53 51.0168 190.88 50.8448 191.205 50.5356C191.53 50.2264 191.947 49.7252 192.453 49.0295C192.582 48.855 192.739 48.7602 192.922 48.7403C193.079 48.7253 193.21 48.7802 193.317 48.9074H193.314ZM185.409 39.7014C185.201 40.3173 185.02 41.1352 184.871 42.1575C184.719 43.1798 184.625 44.2869 184.583 45.4788C185.253 44.5712 185.786 43.6012 186.181 42.5714C186.575 41.5416 186.734 40.629 186.655 39.8286C186.62 39.4645 186.548 39.1902 186.444 39.0032C186.34 38.8187 186.208 38.7339 186.052 38.7514C185.833 38.7738 185.62 39.0905 185.412 39.7039L185.409 39.7014Z" fill="#633527"/>
<path d="M200.468 48.1967C200.572 48.3239 200.634 48.5084 200.659 48.7478C200.704 49.2041 200.624 49.5681 200.418 49.8424C200.021 50.401 199.431 50.9371 198.656 51.4532C197.88 51.9669 197.024 52.2711 196.088 52.3658C194.813 52.493 193.793 52.2661 193.024 51.6876C192.255 51.1066 191.816 50.2538 191.704 49.1243C191.627 48.3388 191.731 47.5883 192.017 46.8727C192.302 46.1595 192.736 45.5736 193.322 45.1123C193.907 44.651 194.595 44.3817 195.384 44.3019C196.088 44.2321 196.671 44.3717 197.135 44.7233C197.599 45.0724 197.862 45.586 197.929 46.2593C198.006 47.0472 197.773 47.7504 197.227 48.3762C196.681 48.9996 195.709 49.5482 194.309 50.022C194.667 50.5182 195.267 50.7226 196.116 50.6378C196.662 50.583 197.267 50.3411 197.929 49.9122C198.592 49.4834 199.15 48.9522 199.602 48.3189C199.731 48.1444 199.887 48.0496 200.071 48.0321C200.23 48.0172 200.359 48.072 200.465 48.1992L200.468 48.1967ZM194.175 46.8552C193.915 47.3764 193.818 47.9848 193.885 48.6805V48.7154C194.59 48.4835 195.128 48.1892 195.51 47.8302C195.892 47.4686 196.061 47.0771 196.021 46.6557C195.999 46.4388 195.92 46.2717 195.778 46.1521C195.637 46.0349 195.458 45.9875 195.24 46.0074C194.791 46.0523 194.436 46.3341 194.175 46.8552Z" fill="#633527"/>
<path d="M201.431 51.7948C201.068 51.5554 200.872 51.2637 200.838 50.9221C200.808 50.6254 200.897 50.3586 201.108 50.1192C201.316 49.8798 201.646 49.7377 202.096 49.6928C202.254 49.6778 202.44 49.6729 202.656 49.6803C202.872 49.6878 203.033 49.6928 203.145 49.6928C203.103 49.3986 203.006 49.1243 202.852 48.8749C202.698 48.6256 202.512 48.3862 202.294 48.1618C202.076 47.9374 201.872 47.7404 201.684 47.5733C201.373 48.284 201.056 48.8799 200.728 49.3612C200.401 49.8424 200.041 50.3037 199.642 50.7476C199.443 50.9745 199.222 51.0991 198.979 51.1241C198.786 51.144 198.619 51.0917 198.485 50.972C198.351 50.8548 198.274 50.6977 198.255 50.5032C198.232 50.2763 198.297 50.0569 198.446 49.8449L198.656 49.5482C199.247 48.7079 199.689 48.0172 199.979 47.4811C200.165 47.1295 200.346 46.7131 200.527 46.2343C200.706 45.7556 200.939 45.1048 201.227 44.2819C201.408 43.7583 201.862 43.4591 202.592 43.3868C202.932 43.3519 203.17 43.3594 203.309 43.4017C203.448 43.4466 203.525 43.5314 203.537 43.6561C203.545 43.7234 203.53 43.8356 203.495 43.9877C203.46 44.1398 203.408 44.2969 203.339 44.4515C203.16 44.8829 203.086 45.2419 203.113 45.5262C203.13 45.6982 203.212 45.8778 203.358 46.0723C203.505 46.2643 203.728 46.5011 204.026 46.7829C204.46 47.2218 204.795 47.6033 205.028 47.9174C205.262 48.2341 205.398 48.5932 205.438 48.9896C205.485 49.4684 205.41 49.9347 205.217 50.386C205.023 50.8373 204.726 51.2163 204.326 51.5205C203.927 51.8247 203.455 52.0043 202.909 52.0591C202.277 52.1215 201.783 52.0317 201.421 51.7923L201.431 51.7948Z" fill="#633527"/>
</svg>
