<svg width="70" height="85" viewBox="0 0 70 85" fill="none" xmlns="http://www.w3.org/2000/svg">
<g clip-path="url(#clip0_104_183)">
<path d="M43.5886 31.3682C52.2489 32.9819 61.7831 36.8652 64.2221 30.3055C65.0307 28.1409 68.1871 15.6644 69.8957 10.3117C70.2217 9.30153 69.8435 8.18638 68.9696 7.60913C61.7962 2.84683 53.2402 -0.0131836 43.9668 -0.0131836C19.7075 -6.42864e-05 0 19.0098 0 42.4409C0 49.8795 1.96944 56.8721 5.43879 62.9595C6.82132 62.684 13.2514 61.5295 18.1815 63.5236C23.7377 65.7801 20.3726 73.7698 24.7028 75.2129C26.2549 75.7377 27.7548 75.7508 29.033 75.554C34.2631 74.7669 39.728 77.0627 42.6365 81.4971C42.6365 81.4971 43.3799 82.5991 44.1494 84.5408V84.567C44.2016 84.6982 44.2538 84.8425 44.2929 84.9737C50.8012 84.9212 56.9834 83.4256 62.5918 80.9067C63.2569 80.5787 63.9482 80.2376 64.6264 79.8965C66.4002 78.9913 67.3002 76.9578 66.8698 75.003C65.4742 68.7713 62.4222 58.5252 61.1571 52.3329C60.9223 50.7061 59.2137 49.2367 57.5834 49.5778C53.6967 50.483 47.3188 52.464 43.7842 52.5559C26.1897 53.0151 30.3242 28.9018 43.5625 31.3682H43.5886Z" fill="#442013"/>
</g>
<defs>
<clipPath id="clip0_104_183">
<rect width="70" height="85" fill="white"/>
</clipPath>
</defs>
</svg>
