<svg fill="none" height="30" viewBox="0 0 32 30" width="32" xmlns="http://www.w3.org/2000/svg"><path d="m31.3503 20.0977c-1.018.1955-2.4041.3475-4.1584.456-1.7327.0869-3.6819.1303-5.8477.1303-2.3608 0-4.8406-.0543-7.4396-.1628-2.599-.1086-5.06805-.2498-7.40714-.4235-2.33908-.1954-4.29915-.4017-5.880201-.6189-.064975-.3691-.140778-1.0097-.227411-1.9218-.064975-.9121-.129949-1.9001-.194924-2.9642-.043317-1.0857-.086633-2.0629-.1299494-2.9316-.0433164-.8903-.0649746-1.4875-.0649746-1.79149.84467.10857 2.02504.20629 3.54112.29319 1.53773.0651 3.27039.1194 5.19797.1628 1.94921.0435 3.95261.0652 6.01011.0652 2.3391 0 4.6241-.0326 6.8549-.0977 2.2308-.0652 4.2558-.1629 6.0751-.2932 1.8193-.13029 3.2595-.2823 4.3208-.45603 0 1.30293-.0433 2.71443-.1299 4.23453-.065 1.4984-.1517 2.8447-.2599 4.0391-.1083 1.1943-.195 1.9544-.2599 2.2801zm-10.1036-20.0977c.2599.912051.4765 2.20412.6497 3.87622.195 1.6721.3466 3.5722.4549 5.70033.1299 2.12815.1949 4.32135.1949 6.57985 0 2.4104-.0866 4.8534-.2599 7.3289-.1516 2.4539-.4115 4.6254-.7797 6.5147-.3465 0-.9854-.0109-1.9168-.0326-.9313-.0217-1.96-.0543-3.0862-.0977-1.1046-.0434-2.1226-.0869-3.0539-.1303-.9096-.0434-1.516-.0868-1.8192-.1303.1082-.8903.1841-1.8675.2274-2.9316.0433-1.064.0649-2.1607.0649-3.2899 0-2.063-.0649-4.2128-.1949-6.4495-.1299-2.2584-.2924-4.4517-.4873-6.5798-.1949-2.12812-.4007-4.0608-.6172-5.79804-.2166-1.73724-.4224-3.10532-.6173-4.104236.2382-.021714.7472-.043429 1.5269-.065146.7797-.04343 1.6677-.086861 2.664-.130291 1.0179-.065147 2.025-.108579 3.0213-.130296 1.0179-.04343 1.8951-.0760035 2.6314-.0977201.7364-.0217139 1.2021-.0325709 1.397-.0325709z" fill="#fae5aa"/></svg>