<svg width="1440" height="123" viewBox="0 0 1440 123" fill="none" xmlns="http://www.w3.org/2000/svg">
<mask id="mask0_104_191" style="mask-type:alpha" maskUnits="userSpaceOnUse" x="0" y="0" width="1440" height="124">
<rect x="1440" y="123" width="1440" height="123" transform="rotate(-180 1440 123)" fill="#FFFAEA"/>
</mask>
<g mask="url(#mask0_104_191)">
<path d="M-1689 107.298C-1639.94 107.298 -1639.94 70.1947 -1591.09 70.1947C-1542.25 70.1947 -1542.03 107.298 -1493.19 107.298C-1444.34 107.298 -1444.34 70.1947 -1395.28 70.1947C-1346.21 70.1947 -1346.44 107.298 -1297.37 107.298C-1248.31 107.298 -1248.53 70.1947 -1199.47 70.1947C-1150.4 70.1947 -1150.62 107.298 -1101.56 107.298C-1052.49 107.298 -1052.72 70.1947 -1003.65 70.1948C-954.588 70.1948 -954.811 107.298 -905.746 107.298C-856.681 107.298 -856.905 70.1948 -807.84 70.1948C-758.775 70.1948 -758.998 107.298 -710.156 107.298C-661.314 107.298 -661.314 70.1948 -612.249 70.1948C-563.184 70.1948 -563.407 107.298 -514.566 107.298C-465.724 107.298 -465.724 70.1948 -416.882 70.1948C-368.04 70.1948 -368.04 107.298 -319.198 107.298C-270.356 107.298 -270.356 70.1948 -221.515 70.1948C-172.673 70.1948 -172.673 107.298 -123.831 107.298C-74.9893 107.298 -74.9889 70.1948 -26.1471 70.1948C22.6947 70.1948 22.6946 107.298 71.5364 107.298C120.378 107.298 120.378 70.1948 169.22 70.1949C218.062 70.1949 218.062 107.298 266.904 107.298C315.746 107.298 315.746 70.1949 364.587 70.1949C413.429 70.1949 413.429 107.298 462.271 107.298C511.113 107.298 511.113 70.1949 559.955 70.1949C608.797 70.1949 608.797 107.298 657.638 107.298C706.48 107.298 706.48 70.1949 755.322 70.1949C804.164 70.1949 804.164 107.298 853.006 107.298C901.848 107.298 901.848 70.1949 950.69 70.1949C999.531 70.1949 999.531 107.298 1048.37 107.298C1097.22 107.298 1097.22 70.1949 1146.06 70.1949C1194.9 70.1949 1195.79 107.298 1244.63 107.298C1293.47 107.298 1293.47 70.195 1342.32 70.195C1391.16 70.195 1391.16 107.298 1440 107.298L1440 9.91821e-05L-1689 -0.000174364L-1689 107.298Z" fill="#FFFAEA"/>
</g>
</svg>
