<svg width="1440" height="123" viewBox="0 0 1440 123" fill="none" xmlns="http://www.w3.org/2000/svg">
<mask id="mask0_19_328" style="mask-type:alpha" maskUnits="userSpaceOnUse" x="0" y="0" width="1440" height="123">
<rect width="1440" height="123" fill="#D9D9D9"/>
</mask>
<g mask="url(#mask0_19_328)">
<path d="M3129 15.7021C3079.94 15.7021 3079.94 52.8052 3031.09 52.8052C2982.25 52.8052 2982.03 15.7021 2933.19 15.7021C2884.34 15.7021 2884.34 52.8052 2835.28 52.8052C2786.22 52.8052 2786.44 15.7021 2737.37 15.7021C2688.31 15.7021 2688.53 52.8052 2639.47 52.8052C2590.4 52.8052 2590.62 15.7021 2541.56 15.7021C2492.49 15.7021 2492.72 52.8052 2443.65 52.8052C2394.59 52.8052 2394.81 15.7021 2345.75 15.7021C2296.68 15.7021 2296.9 52.8052 2247.84 52.8052C2198.77 52.8052 2199 15.7021 2150.16 15.7021C2101.31 15.7021 2101.31 52.8052 2052.25 52.8052C2003.18 52.8052 2003.41 15.7021 1954.57 15.7021C1905.72 15.7021 1905.72 52.8052 1856.88 52.8052C1808.04 52.8052 1808.04 15.7021 1759.2 15.7021C1710.36 15.7021 1710.36 52.8052 1661.51 52.8052C1612.67 52.8052 1612.67 15.7021 1563.83 15.7021C1514.99 15.7021 1514.99 52.8052 1466.15 52.8052C1417.31 52.8052 1417.31 15.7021 1368.46 15.7021C1319.62 15.7021 1319.62 52.8052 1270.78 52.8052C1221.94 52.8052 1221.94 15.7021 1173.1 15.7021C1124.25 15.7021 1124.25 52.8052 1075.41 52.8052C1026.57 52.8052 1026.57 15.7021 977.729 15.7021C928.887 15.7021 928.887 52.8052 880.045 52.8052C831.203 52.8052 831.203 15.7021 782.362 15.7021C733.52 15.7021 733.52 52.8052 684.678 52.8052C635.836 52.8052 635.836 15.7021 586.994 15.7021C538.152 15.7021 538.152 52.8052 489.31 52.8052C440.469 52.8052 440.469 15.7021 391.627 15.7021C342.785 15.7021 342.785 52.8052 293.943 52.8052C245.101 52.8052 244.209 15.7021 195.367 15.7021C146.526 15.7021 146.526 52.8052 97.6837 52.8052C48.8418 52.8052 48.8418 15.7021 0 15.7021V123H3129V15.7021Z" fill="#442013"/>
</g>
</svg>
